<mxfile host="app.diagrams.net" modified="2021-06-08T07:24:56.158Z" agent="5.0 (Macintosh; Intel Mac OS X 10_15_7) AppleWebKit/537.36 (KHTML, like Gecko) Chrome/91.0.4472.77 Safari/537.36" etag="trEBDZVmoRpPMxHThZDn" version="14.7.2" type="github">
  <diagram id="rqZE1zkjcnGDybR2Cvvr" name="Page-1">
    <mxGraphModel dx="496" dy="270" grid="1" gridSize="10" guides="1" tooltips="1" connect="1" arrows="1" fold="1" page="1" pageScale="1" pageWidth="827" pageHeight="1169" math="0" shadow="0">
      <root>
        <mxCell id="0" />
        <mxCell id="1" parent="0" />
        <mxCell id="avaQdtREV8DfUGoCfS8B-5" value="" style="edgeStyle=orthogonalEdgeStyle;rounded=0;orthogonalLoop=1;jettySize=auto;html=1;" edge="1" parent="1" source="avaQdtREV8DfUGoCfS8B-1" target="avaQdtREV8DfUGoCfS8B-4">
          <mxGeometry relative="1" as="geometry" />
        </mxCell>
        <mxCell id="avaQdtREV8DfUGoCfS8B-1" value="暂停任务（standaone）" style="rounded=1;whiteSpace=wrap;html=1;" vertex="1" parent="1">
          <mxGeometry x="270" y="90" width="130" height="40" as="geometry" />
        </mxCell>
        <mxCell id="avaQdtREV8DfUGoCfS8B-3" value="/jobs/suspendedJob" style="text;html=1;align=center;verticalAlign=middle;resizable=0;points=[];autosize=1;strokeColor=none;" vertex="1" parent="1">
          <mxGeometry x="410" y="100" width="120" height="20" as="geometry" />
        </mxCell>
        <mxCell id="avaQdtREV8DfUGoCfS8B-7" value="" style="edgeStyle=orthogonalEdgeStyle;rounded=0;orthogonalLoop=1;jettySize=auto;html=1;" edge="1" parent="1" source="avaQdtREV8DfUGoCfS8B-4" target="avaQdtREV8DfUGoCfS8B-6">
          <mxGeometry relative="1" as="geometry" />
        </mxCell>
        <mxCell id="avaQdtREV8DfUGoCfS8B-9" value="" style="edgeStyle=orthogonalEdgeStyle;rounded=0;orthogonalLoop=1;jettySize=auto;html=1;" edge="1" parent="1" source="avaQdtREV8DfUGoCfS8B-4" target="avaQdtREV8DfUGoCfS8B-8">
          <mxGeometry relative="1" as="geometry" />
        </mxCell>
        <mxCell id="avaQdtREV8DfUGoCfS8B-4" value="从JobInstance表中获取实例列表" style="rounded=1;whiteSpace=wrap;html=1;" vertex="1" parent="1">
          <mxGeometry x="245" y="210" width="180" height="40" as="geometry" />
        </mxCell>
        <mxCell id="avaQdtREV8DfUGoCfS8B-6" value="实例在（runjob）提交job的时候就产生了" style="rounded=1;whiteSpace=wrap;html=1;" vertex="1" parent="1">
          <mxGeometry x="505" y="210" width="180" height="40" as="geometry" />
        </mxCell>
        <mxCell id="avaQdtREV8DfUGoCfS8B-11" value="" style="edgeStyle=orthogonalEdgeStyle;rounded=0;orthogonalLoop=1;jettySize=auto;html=1;" edge="1" parent="1" source="avaQdtREV8DfUGoCfS8B-8" target="avaQdtREV8DfUGoCfS8B-10">
          <mxGeometry relative="1" as="geometry" />
        </mxCell>
        <mxCell id="avaQdtREV8DfUGoCfS8B-8" value="通过jobId停止job触发savepoint" style="rounded=1;whiteSpace=wrap;html=1;" vertex="1" parent="1">
          <mxGeometry x="245" y="330" width="180" height="40" as="geometry" />
        </mxCell>
        <mxCell id="avaQdtREV8DfUGoCfS8B-13" value="" style="edgeStyle=orthogonalEdgeStyle;rounded=0;orthogonalLoop=1;jettySize=auto;html=1;" edge="1" parent="1" source="avaQdtREV8DfUGoCfS8B-10" target="avaQdtREV8DfUGoCfS8B-12">
          <mxGeometry relative="1" as="geometry" />
        </mxCell>
        <mxCell id="avaQdtREV8DfUGoCfS8B-10" value="restAPI：urlPrefix + &quot;/jobs/&quot; + jobId + &quot;/savepoints&quot;" style="rounded=1;whiteSpace=wrap;html=1;" vertex="1" parent="1">
          <mxGeometry x="505" y="330" width="180" height="40" as="geometry" />
        </mxCell>
        <mxCell id="avaQdtREV8DfUGoCfS8B-12" value="构建请求参数：httpPost.setEntity(entity);" style="rounded=1;whiteSpace=wrap;html=1;" vertex="1" parent="1">
          <mxGeometry x="505" y="410" width="180" height="40" as="geometry" />
        </mxCell>
      </root>
    </mxGraphModel>
  </diagram>
</mxfile>
